<svg xmlns="http://www.w3.org/2000/svg" viewBox="0 0 24 24" width="24" height="24" color="#000000" fill="none">
    <path d="M12.9999 19.002C12.9999 19.5542 12.5522 20.002 11.9999 20.002C11.4476 20.0019 10.9999 19.5542 10.9999 19.002V6.74121C10.4264 7.25563 9.78116 7.94409 9.16198 8.65723C8.52607 9.38966 7.93619 10.1256 7.50378 10.6797C7.2881 10.9561 6.86131 11.5134 6.74011 11.6738C6.39996 12.0494 5.82401 12.1144 5.4071 11.8076C4.9626 11.4802 4.86709 10.8538 5.19421 10.4092C5.32082 10.2415 5.70349 9.73516 5.92663 9.44922C6.37213 8.87836 6.9859 8.11413 7.65222 7.34668C8.31419 6.58424 9.04804 5.79591 9.73327 5.19043C10.0746 4.8888 10.4273 4.61078 10.7714 4.40332C11.0881 4.2124 11.5238 4.00198 11.9999 4.00195L12.1766 4.01172C12.5829 4.05466 12.9504 4.23637 13.2274 4.40332C13.5716 4.61079 13.925 4.88871 14.2665 5.19043C14.9517 5.7959 15.6856 6.58427 16.3475 7.34668C17.0138 8.1141 17.6276 8.87836 18.0731 9.44922C18.2962 9.73513 18.6789 10.2415 18.8055 10.4092C19.1327 10.8538 19.0372 11.4792 18.5926 11.8066C18.1757 12.1137 17.5999 12.0496 17.2596 11.6738C17.2596 11.6738 17.0692 11.4269 17.0087 11.3467C16.8875 11.1862 16.7117 10.9561 16.496 10.6797C16.0635 10.1256 15.4737 9.38965 14.8378 8.65723C14.2185 7.94406 13.5734 7.25564 12.9999 6.74121V19.002Z" fill="currentColor" />
</svg>