<svg xmlns="http://www.w3.org/2000/svg" viewBox="0 0 24 24" width="24" height="24" color="#000000" fill="none">
    <path d="M17.293 5.29295C17.6835 4.90243 18.3165 4.90243 18.707 5.29295C19.0976 5.68348 19.0976 6.31649 18.707 6.70702L13.4131 12L18.7061 17.293L18.7754 17.3691C19.0954 17.7619 19.0721 18.341 18.7061 18.707C18.3399 19.0731 17.7609 19.0958 17.3682 18.7754L17.292 18.707L11.999 13.414L6.70802 18.706C6.3175 19.0966 5.68449 19.0965 5.29396 18.706C4.90344 18.3155 4.90344 17.6825 5.29396 17.292L10.585 12L5.29298 6.70799L5.22462 6.63182C4.90423 6.23907 4.92691 5.66007 5.29298 5.29393C5.65897 4.92794 6.23811 4.9046 6.63087 5.22459L6.70705 5.29393L11.999 10.5859L17.293 5.29295Z" fill="currentColor" />
</svg>