<svg xmlns="http://www.w3.org/2000/svg" viewBox="0 0 24 24" width="24" height="24" color="#000000" fill="none">
    <path fill-rule="evenodd" clip-rule="evenodd" d="M7.9319 3.87827C8.06823 4.41346 7.74489 4.95784 7.2097 5.09417L5.24685 5.59417C4.71165 5.7305 4.16728 5.40716 4.03095 4.87197C3.89461 4.33677 4.21796 3.79239 4.75315 3.65606L6.716 3.15606C7.25119 3.01973 7.79557 3.34308 7.9319 3.87827ZM16.0299 3.88258C16.1638 3.34679 16.7067 3.02103 17.2425 3.15498L19.2425 3.65498C19.7783 3.78892 20.1041 4.33186 19.9701 4.86765C19.8362 5.40345 19.2933 5.72921 18.7575 5.59526L16.7575 5.09526C16.2217 4.96131 15.8959 4.41838 16.0299 3.88258Z" fill="currentColor" />
    <path fill-rule="evenodd" clip-rule="evenodd" d="M4.92509 6.17612C9.34102 5.1078 14.659 5.1078 19.0749 6.17612C20.1031 6.42487 20.8958 7.16741 21.2589 8.13694C21.8432 9.697 22.5131 12.3264 22.7403 15.8863C22.9054 18.4745 20.9807 19.8307 19.2803 20.6872C18.8223 20.9179 18.3491 20.9286 17.9171 20.7592C17.5185 20.603 17.2028 20.3134 16.96 20.025C16.4777 19.4522 16.1003 18.6588 15.8299 18.0493C15.6563 17.6579 15.2779 17.4105 14.8281 17.4105H9.17196C8.72218 17.4105 8.34378 17.6579 8.17012 18.0493C7.89974 18.6588 7.52233 19.4522 7.04 20.025C6.79722 20.3134 6.48151 20.603 6.08295 20.7592C5.6509 20.9286 5.17774 20.9179 4.7197 20.6872C3.03995 19.8411 1.09341 18.4935 1.25978 15.8863C1.48693 12.3264 2.15683 9.697 2.74109 8.13694C3.10419 7.16741 3.89689 6.42487 4.92509 6.17612ZM9.70691 9.41777C10.0974 9.8083 10.0974 10.4415 9.70691 10.832L8.91401 11.6249L9.70691 12.4178C10.0974 12.8083 10.0974 13.4415 9.70691 13.832C9.31638 14.2225 8.68322 14.2225 8.2927 13.832L7.4998 13.0391L6.70691 13.832C6.31638 14.2225 5.68322 14.2225 5.2927 13.832C4.90217 13.4415 4.90217 12.8083 5.2927 12.4178L6.08559 11.6249L5.2927 10.832C4.90217 10.4415 4.90217 9.8083 5.2927 9.41777C5.68322 9.02725 6.31638 9.02725 6.70691 9.41777L7.4998 10.2107L8.29269 9.41777C8.68322 9.02725 9.31638 9.02725 9.70691 9.41777ZM15.9971 11.1249H15.9881C15.4358 11.1249 14.9881 10.6772 14.9881 10.1249C14.9881 9.57259 15.4358 9.12488 15.9881 9.12488H15.9971C16.5493 9.12488 16.9971 9.57259 16.9971 10.1249C16.9971 10.6772 16.5493 11.1249 15.9971 11.1249ZM16.9881 13.1249C16.9881 12.5726 17.4358 12.1249 17.9881 12.1249H17.9971C18.5493 12.1249 18.9971 12.5726 18.9971 13.1249C18.9971 13.6772 18.5493 14.1249 17.9971 14.1249H17.9881C17.4358 14.1249 16.9881 13.6772 16.9881 13.1249Z" fill="currentColor" />
</svg>