<svg xmlns="http://www.w3.org/2000/svg" viewBox="0 0 24 24" width="24" height="24" color="#000000" fill="none">
    <path d="M6.74994 14.8569C6.74985 13.5627 6.74977 12.3758 6.87984 11.4084C7.02314 10.3425 7.36028 9.21504 8.28763 8.28769C9.21498 7.36034 10.3425 7.0232 11.4083 6.8799C12.3758 6.74983 13.5627 6.74991 14.8569 6.75L17.0931 6.75C17.3891 6.75 17.5371 6.75 17.6261 6.65419C17.7151 6.55838 17.7045 6.4142 17.6832 6.12584C17.6648 5.87546 17.6412 5.63892 17.6111 5.41544C17.4818 4.45589 17.2231 3.6585 16.6717 2.98663C16.4744 2.74612 16.2538 2.52558 16.0133 2.3282C15.3044 1.74638 14.4557 1.49055 13.4247 1.36868C12.4205 1.24998 11.1511 1.24999 9.54887 1.25H9.45103C7.84877 1.24999 6.57941 1.24998 5.57519 1.36868C4.54422 1.49054 3.69552 1.74638 2.98657 2.3282C2.74606 2.52558 2.52552 2.74612 2.32814 2.98663C1.74632 3.69558 1.49048 4.54428 1.36862 5.57525C1.24992 6.57947 1.24993 7.84882 1.24994 9.45108V9.54891C1.24993 11.1512 1.24992 12.4205 1.36862 13.4247C1.49048 14.4557 1.74632 15.3044 2.32814 16.0134C2.52552 16.2539 2.74606 16.4744 2.98657 16.6718C3.65844 17.2232 4.45583 17.4818 5.41538 17.6111C5.63886 17.6412 5.8754 17.6648 6.12578 17.6833C6.41414 17.7045 6.55831 17.7151 6.65413 17.6261C6.74994 17.5371 6.74994 17.3891 6.74994 17.0931V14.8569Z" fill="currentColor" />
    <path fill-rule="evenodd" clip-rule="evenodd" d="M12.5535 9.09108C12.6229 9.62041 12.25 10.1058 11.7207 10.1752C11.0847 10.2586 10.7687 10.3983 10.5613 10.5688C10.3784 10.7193 10.2497 10.9156 10.1643 11.3404C10.0592 11.8638 9.54968 12.2029 9.02627 12.0978C8.50285 11.9927 8.16377 11.4831 8.2689 10.9597C8.41673 10.2237 8.71907 9.58093 9.33313 9.07578C9.93546 8.58028 10.6592 8.36455 11.4693 8.25831C11.9987 8.1889 12.4841 8.56174 12.5535 9.09108ZM18.4463 9.09108C18.5157 8.56174 19.0011 8.1889 19.5304 8.25831C20.3405 8.36455 21.0643 8.58028 21.6666 9.07578C22.2807 9.58093 22.583 10.2237 22.7308 10.9597C22.836 11.4831 22.4969 11.9927 21.9735 12.0978C21.4501 12.2029 20.9405 11.8638 20.8354 11.3404C20.7501 10.9156 20.6213 10.7193 20.4384 10.5688C20.2311 10.3983 19.915 10.2586 19.279 10.1752C18.7497 10.1058 18.3769 9.62041 18.4463 9.09108ZM13.0832 9.21676C13.0832 8.68289 13.516 8.25011 14.0499 8.25011H16.9498C17.4837 8.25011 17.9165 8.68289 17.9165 9.21676C17.9165 9.75063 17.4837 10.1834 16.9498 10.1834H14.0499C13.516 10.1834 13.0832 9.75063 13.0832 9.21676ZM9.21663 13.0834C9.75049 13.0834 10.1833 13.5162 10.1833 14.05V16.95C10.1833 17.4838 9.75049 17.9166 9.21663 17.9166C8.68276 17.9166 8.24997 17.4838 8.24997 16.95V14.05C8.24997 13.5162 8.68276 13.0834 9.21663 13.0834ZM21.7831 13.0834C22.317 13.0834 22.7498 13.5162 22.7498 14.05V16.95C22.7498 17.4838 22.317 17.9166 21.7831 17.9166C21.2492 17.9166 20.8165 17.4838 20.8165 16.95V14.05C20.8165 13.5162 21.2492 13.0834 21.7831 13.0834ZM9.02627 18.9022C9.54968 18.7971 10.0592 19.1362 10.1643 19.6596C10.2497 20.0844 10.3784 20.2807 10.5613 20.4312C10.7687 20.6017 11.0847 20.7414 11.7207 20.8248C12.25 20.8942 12.6229 21.3796 12.5535 21.9089C12.4841 22.4383 11.9987 22.8111 11.4693 22.7417C10.6592 22.6355 9.93546 22.4197 9.33313 21.9242C8.71906 21.4191 8.41673 20.7763 8.2689 20.0403C8.16377 19.5169 8.50285 19.0073 9.02627 18.9022ZM21.9735 18.9022C22.4969 19.0073 22.836 19.5169 22.7308 20.0403C22.583 20.7763 22.2807 21.4191 21.6666 21.9242C21.0643 22.4197 20.3405 22.6355 19.5304 22.7417C19.0011 22.8111 18.5157 22.4383 18.4463 21.9089C18.3769 21.3796 18.7497 20.8942 19.279 20.8248C19.915 20.7414 20.2311 20.6017 20.4384 20.4312C20.6213 20.2807 20.7501 20.0844 20.8354 19.6596C20.9405 19.1362 21.45 18.7971 21.9735 18.9022ZM13.0832 21.7832C13.0832 21.2494 13.516 20.8166 14.0499 20.8166H16.9498C17.4837 20.8166 17.9165 21.2494 17.9165 21.7832C17.9165 22.3171 17.4837 22.7499 16.9498 22.7499H14.0499C13.516 22.7499 13.0832 22.3171 13.0832 21.7832Z" fill="currentColor" />
</svg>