<svg xmlns="http://www.w3.org/2000/svg" viewBox="0 0 24 24" width="24" height="24" color="#000000" fill="none">
    <path fill-rule="evenodd" clip-rule="evenodd" d="M9.32289 2.25003L9.23265 2.25001C8.47304 2.24984 7.96465 2.24972 7.47672 2.36883C7.25578 2.42277 7.03998 2.49476 6.83189 2.58414C6.37 2.78253 5.97535 3.08651 5.39532 3.53329L5.32472 3.58766L5.29273 3.61228C4.24651 4.41768 3.41746 5.0559 2.80797 5.62799C2.1851 6.21262 1.72591 6.7865 1.48506 7.48693C1.28734 8.06193 1.21295 8.66844 1.26722 9.27182C1.33356 10.0094 1.64582 10.6679 2.11451 11.3677C2.57202 12.0509 3.22764 12.8427 4.05236 13.8386L4.05239 13.8387L4.05242 13.8387L8.11023 18.7392L8.11025 18.7392L8.11026 18.7392C8.84673 19.6287 9.45218 20.3599 10.0079 20.8609C10.5914 21.3869 11.2168 21.75 12 21.75C12.7832 21.75 13.4086 21.3869 13.9921 20.8609C14.5478 20.3599 15.1533 19.6287 15.8898 18.7392L19.9476 13.8386C20.7724 12.8427 21.428 12.0509 21.8855 11.3677C22.3542 10.6679 22.6664 10.0094 22.7328 9.27182C22.7871 8.66844 22.7127 8.06193 22.5149 7.48693C22.2741 6.7865 21.8149 6.21262 21.192 5.62799C20.5825 5.05591 19.7535 4.41769 18.7073 3.6123L18.7072 3.61226L18.6753 3.58766L18.6047 3.53329C18.0246 3.08651 17.63 2.78253 17.1681 2.58414C16.96 2.49476 16.7442 2.42277 16.5233 2.36883C16.0353 2.24972 15.527 2.24984 14.7673 2.25001L14.6771 2.25003H9.32289ZM10 7.75C9.58579 7.75 9.25 8.08579 9.25 8.5C9.25 8.91421 9.58579 9.25 10 9.25H14C14.4142 9.25 14.75 8.91421 14.75 8.5C14.75 8.08579 14.4142 7.75 14 7.75H10Z" fill="currentColor" />
</svg>