<svg xmlns="http://www.w3.org/2000/svg" viewBox="0 0 24 24" width="24" height="24" color="#000000" fill="none">
    <path d="M20.25 14.75V10.75C20.25 8.83608 20.2477 7.50125 20.1123 6.49411C19.9808 5.51577 19.7401 4.99789 19.3711 4.62888C19.0021 4.25987 18.4842 4.01921 17.5059 3.88767C16.4987 3.75226 15.1639 3.74997 13.25 3.74997H10.75C8.83611 3.74997 7.50128 3.75226 6.49414 3.88767C5.5158 4.01921 4.99792 4.25987 4.62891 4.62888C4.2599 4.99789 4.01924 5.51577 3.8877 6.49411C3.75229 7.50125 3.75 8.83608 3.75 10.75V14.75C3.75 15.3023 3.30229 15.75 2.75 15.75C2.19772 15.75 1.75 15.3023 1.75 14.75V10.75C1.75 8.89262 1.74779 7.39889 1.90528 6.22751C2.06664 5.02741 2.41231 4.01735 3.21485 3.21481C4.01738 2.41228 5.02745 2.06661 6.22754 1.90524C7.39892 1.74776 8.89265 1.74997 10.75 1.74997H13.25C15.1074 1.74997 16.6011 1.74776 17.7725 1.90524C18.9726 2.06661 19.9826 2.41228 20.7852 3.21481C21.5877 4.01735 21.9334 5.02742 22.0947 6.22751C22.2522 7.39889 22.25 8.89262 22.25 10.75V14.75C22.25 15.3023 21.8023 15.75 21.25 15.75C20.6977 15.75 20.25 15.3023 20.25 14.75Z" fill="currentColor" />
    <path d="M14.0312 5.74997C15.6419 5.74996 16.9169 5.74997 17.9248 5.86911C18.9557 5.99098 19.8048 6.2463 20.5137 6.82809C20.7541 7.02541 20.9746 7.24589 21.1719 7.4863C21.7537 8.19522 22.009 9.04424 22.1309 10.0752C22.25 11.0831 22.25 12.3581 22.25 13.9687V14.0312C22.25 15.6418 22.25 16.9169 22.1309 17.9248C22.009 18.9557 21.7537 19.8047 21.1719 20.5136C20.9746 20.7541 20.7541 20.9745 20.5137 21.1718C19.8048 21.7536 18.9557 22.009 17.9248 22.1308C16.9169 22.25 15.6419 22.25 14.0312 22.25H9.96875C8.35815 22.25 7.0831 22.25 6.0752 22.1308C5.04427 22.009 4.19525 21.7536 3.48633 21.1718C3.24592 20.9745 3.02544 20.7541 2.82812 20.5136C2.24633 19.8047 1.99101 18.9557 1.86914 17.9248C1.75 16.9169 1.75 15.6418 1.75 14.0312V13.9687C1.75 12.3581 1.75 11.0831 1.86914 10.0752C1.99101 9.04424 2.24633 8.19522 2.82812 7.4863C3.02544 7.24589 3.24592 7.02541 3.48633 6.82809C4.19525 6.2463 5.04427 5.99098 6.0752 5.86911C7.0831 5.74997 8.35815 5.74996 9.96875 5.74997H14.0312ZM12 9.49997C11.4477 9.49997 11 9.94768 11 10.5V15.3906C10.6896 15.0331 10.3585 14.6264 10.1455 14.3535C10.0396 14.2178 9.86489 13.9856 9.80566 13.9072C9.47825 13.4626 8.8519 13.3671 8.40723 13.6943C7.96265 14.0217 7.86716 14.6481 8.19434 15.0927C8.259 15.1784 8.45594 15.4386 8.56934 15.584C8.7953 15.8735 9.10761 16.2629 9.44824 16.6552C9.78455 17.0426 10.1683 17.456 10.5352 17.7802C10.7175 17.9414 10.9198 18.1021 11.1279 18.2275C11.3086 18.3364 11.6228 18.5 12 18.5C12.3772 18.5 12.6914 18.3364 12.8721 18.2275C13.0802 18.1021 13.2825 17.9414 13.4648 17.7802C13.8317 17.4561 14.2154 17.0426 14.5518 16.6552C14.8924 16.2629 15.2047 15.8735 15.4307 15.584C15.5441 15.4386 15.741 15.1784 15.8057 15.0927C16.1328 14.6481 16.0373 14.0227 15.5928 13.6953C15.1481 13.3678 14.5219 13.4635 14.1943 13.9082C14.1351 13.9866 13.9604 14.2178 13.8545 14.3535C13.6415 14.6264 13.3104 15.0331 13 15.3906V10.5C13 9.9477 12.5523 9.49999 12 9.49997Z" fill="currentColor" />
</svg>