<svg xmlns="http://www.w3.org/2000/svg" viewBox="0 0 24 24" width="24" height="24" color="#000000" fill="none">
    <path d="M16.1439 10.8544C15.7604 10.7888 15.2902 10.7658 14.7504 10.7567V4.99991C14.7504 4.5833 14.7563 4.22799 14.6732 3.91788C14.4652 3.1414 13.8589 2.5351 13.0824 2.32706C12.7723 2.24399 12.417 2.24991 12.0004 2.24991C11.5838 2.24991 11.2285 2.244 10.9183 2.32706C10.1419 2.5351 9.53459 3.1414 9.32654 3.91788C9.24355 4.22794 9.25037 4.5834 9.25037 4.99991V10.7567C8.71056 10.7658 8.24038 10.7888 7.85681 10.8544C7.344 10.9421 6.77397 11.1384 6.46033 11.6796L6.40174 11.7929L6.35193 11.9081C6.08178 12.5976 6.3948 13.2355 6.73279 13.7284C7.07715 14.2305 7.6246 14.832 8.28226 15.5546L8.31873 15.5946C9.03427 16.3808 9.62531 17.0262 10.1595 17.4687C10.7074 17.9223 11.2882 18.2426 11.9926 18.2499H12.0082C12.7125 18.2426 13.2934 17.9223 13.8412 17.4687C14.3754 17.0262 14.9665 16.3808 15.682 15.5946L15.7185 15.5546C16.3761 14.832 16.9236 14.2305 17.2679 13.7284C17.6059 13.2355 17.919 12.5976 17.6488 11.9081L17.599 11.7929L17.5404 11.6796C17.2268 11.1384 16.6567 10.9421 16.1439 10.8544Z" fill="currentColor" />
    <path d="M18.75 19.7499C19.3023 19.7499 19.75 20.1976 19.75 20.7499C19.75 21.3022 19.3023 21.7499 18.75 21.7499H5.25C4.69772 21.7499 4.25 21.3022 4.25 20.7499C4.25 20.1976 4.69772 19.7499 5.25 19.7499H18.75Z" fill="currentColor" />
</svg>