<svg xmlns="http://www.w3.org/2000/svg" viewBox="0 0 24 24" width="24" height="24" color="#000000" fill="none">
    <path d="M18.799 3.0499C17.7324 1.98335 16.0032 1.98337 14.9366 3.04994L13.5236 4.46296L19.537 10.4763L20.9501 9.06321C22.0167 7.99665 22.0166 6.26746 20.9501 5.20092L18.799 3.0499Z" fill="currentColor" />
    <path d="M18.4764 11.537L12.463 5.52363L4.35808 13.6286C3.66361 14.3231 3.20349 15.2172 3.04202 16.1859L2.26021 20.8767C2.22039 21.1156 2.29841 21.3591 2.46968 21.5303C2.64095 21.7016 2.88439 21.7796 3.12331 21.7398L7.81417 20.958C8.78294 20.7965 9.67706 20.3364 10.3715 19.642L18.4764 11.537Z" fill="currentColor" />
</svg>