<svg xmlns="http://www.w3.org/2000/svg" viewBox="0 0 24 24" width="24" height="24" color="#000000" fill="none">
    <path d="M12 1.25C17.9371 1.25 22.75 6.06294 22.75 12C22.75 17.9371 17.9371 22.75 12 22.75C6.06294 22.75 1.25 17.9371 1.25 12C1.25 6.06294 6.06294 1.25 12 1.25ZM12 14.9883C11.4477 14.9883 11 15.436 11 15.9883V15.998C11 16.5503 11.4477 16.998 12 16.998C12.5523 16.998 13 16.5503 13 15.998V15.9883C13 15.436 12.5523 14.9883 12 14.9883ZM12 7C11.4477 7 11 7.44772 11 8V12.5C11 13.0523 11.4477 13.5 12 13.5C12.5523 13.5 13 13.0523 13 12.5V8C13 7.44772 12.5523 7 12 7Z" fill="currentColor" />
</svg>