<svg xmlns="http://www.w3.org/2000/svg" viewBox="0 0 24 24" width="24" height="24" color="#000000" fill="none">
    <path d="M12 1.25C17.9371 1.25 22.75 6.06294 22.75 12C22.75 17.9371 17.9371 22.75 12 22.75C6.06294 22.75 1.25 17.9371 1.25 12C1.25 6.06294 6.06294 1.25 12 1.25ZM12 10.5C11.4477 10.5 11 10.9477 11 11.5V16C11 16.5523 11.4477 17 12 17C12.5523 17 13 16.5523 13 16V11.5C13 10.9477 12.5523 10.5 12 10.5ZM12 6.99805C11.4477 6.99805 11 7.44576 11 7.99805V8.00781C11 8.5601 11.4477 9.00781 12 9.00781C12.5523 9.00781 13 8.5601 13 8.00781V7.99805C13 7.44576 12.5523 6.99805 12 6.99805Z" fill="currentColor" />
</svg>