<svg xmlns="http://www.w3.org/2000/svg" viewBox="0 0 24 24" width="24" height="24" color="#000000" fill="none">
    <path d="M9.43531 4.06585C10.4757 3.58724 11.2087 3.25 12 3.25C12.7913 3.25 13.5243 3.58724 14.5647 4.06585L19.6573 6.40525C20.513 6.79828 21.2323 7.12867 21.731 7.45333C22.2326 7.77985 22.75 8.25262 22.75 9C22.75 9.74738 22.2326 10.2202 21.731 10.5467C21.2323 10.8713 20.513 11.2017 19.6573 11.5948L14.5647 13.9341C13.5244 14.4128 12.7913 14.75 12 14.75C11.2087 14.75 10.4757 14.4128 9.43532 13.9342L9.4353 13.9341L4.3427 11.5947L4.34269 11.5947C3.487 11.2017 2.76767 10.8713 2.26898 10.5467C1.76745 10.2202 1.25 9.74738 1.25 9C1.25 8.25262 1.76745 7.77985 2.26898 7.45333C2.76767 7.12867 3.48701 6.79827 4.34271 6.40525L9.43531 4.06585Z" fill="currentColor" />
    <path d="M3.43379 12.8281C2.97382 13.0479 2.57882 13.2518 2.26898 13.4535C1.76745 13.7801 1.25 14.2528 1.25 15.0002C1.25 15.7476 1.76745 16.2204 2.26898 16.5469C2.76766 16.8715 3.48698 17.2019 4.34265 17.5949L9.4353 19.9344C10.4756 20.413 11.2087 20.7502 12 20.7502C12.7913 20.7502 13.5244 20.413 14.5647 19.9344L19.6573 17.595C20.513 17.2019 21.2323 16.8715 21.731 16.5469C22.2326 16.2204 22.75 15.7476 22.75 15.0002C22.75 14.2528 22.2326 13.7801 21.731 13.4535C21.4212 13.2518 21.0262 13.0479 20.5662 12.8281C20.499 12.8591 20.4317 12.8899 20.3646 12.9208L15.0478 15.3634C14.1346 15.785 13.1268 16.2502 12 16.2502C10.8732 16.2502 9.86543 15.785 8.95222 15.3634L3.63539 12.9208C3.56827 12.8899 3.50101 12.8591 3.43379 12.8281Z" fill="currentColor" />
</svg>