<svg xmlns="http://www.w3.org/2000/svg" viewBox="0 0 24 24" width="24" height="24" color="#000000" fill="none">
    <path d="M2.25 12C2.25 6.61522 6.61521 2.25 12 2.25C15.1908 2.25 18.0209 3.78363 19.799 6.15095L19.8 6.15V3.225C19.8 2.68652 20.2365 2.25 20.775 2.25C21.3135 2.25 21.75 2.68652 21.75 3.225V6.15C21.75 6.81187 21.7524 7.40649 21.6881 7.88481C21.62 8.39116 21.4614 8.91039 21.0359 9.33589C20.6104 9.76139 20.0912 9.92002 19.5848 9.98811C19.1065 10.0524 18.5119 10.05 17.85 10.05H14.925C14.3865 10.05 13.95 9.61348 13.95 9.075C13.95 8.53652 14.3865 8.1 14.925 8.1H17.85C18.2154 8.1 18.5087 8.09857 18.7507 8.09238C17.4002 5.76433 14.8824 4.2 12 4.2C7.69217 4.2 4.2 7.69217 4.2 12C4.2 16.3078 7.69217 19.8 12 19.8C15.3946 19.8 18.285 17.631 19.3563 14.6003C19.5357 14.0926 20.093 13.8267 20.6007 14.0062C21.1082 14.1857 21.3742 14.7421 21.1949 15.2497C19.8569 19.0352 16.2467 21.75 12 21.75C6.61521 21.75 2.25 17.3848 2.25 12Z" fill="currentColor" />
</svg>