<svg xmlns="http://www.w3.org/2000/svg" viewBox="0 0 24 24" width="24" height="24" color="#000000" fill="none">
    <path fill-rule="evenodd" clip-rule="evenodd" d="M9.74975 22.4469C10.0241 22.6444 10.3181 22.7181 10.5977 22.75H13.4023C13.6819 22.7181 13.9759 22.6444 14.2503 22.4469C14.5245 22.2495 14.6873 21.9946 14.8058 21.7402C14.9122 21.5117 15.4485 19.9112 15.4485 19.9112C15.4485 19.9112 15.7104 19.4678 15.9256 19.3266C16.3481 19.0495 16.7744 18.9894 17.0521 19.0495C17.0521 19.0495 18.9336 19.5792 19.1993 19.6213C19.4948 19.6681 19.8181 19.674 20.1524 19.5385C20.4866 19.4031 20.714 19.1739 20.893 18.935L22.3316 16.4526C22.4442 16.1934 22.5272 15.9008 22.4917 15.5633C22.4561 15.2258 22.3138 14.9568 22.1496 14.7266C22.0021 14.5199 20.7592 13.1363 20.5441 12.898C20.5441 12.898 20.2841 12.4993 20.2841 11.9998C20.2841 11.4151 20.5441 11.1019 20.5441 11.1019C20.5441 11.1019 22.0021 9.47998 22.1496 9.2733C22.3138 9.04311 22.4561 8.7741 22.4917 8.4366C22.5272 8.09914 22.4442 7.80652 22.3316 7.54733C22.2304 7.31456 20.893 5.06487 20.893 5.06487C20.714 4.82595 20.4866 4.59685 20.1524 4.46138C19.8181 4.32586 19.4948 4.33183 19.1993 4.3786C18.9336 4.42064 17.382 4.85698 17.0521 4.95035C17.0521 4.95035 16.5227 5.06487 15.9256 4.67329C15.7104 4.53218 15.5437 4.32813 15.4484 4.08872C15.4484 4.08872 14.9122 2.48829 14.8058 2.25981C14.6873 2.00543 14.5245 1.75047 14.2503 1.55308C13.9759 1.3556 13.6819 1.28188 13.4023 1.25H10.5977C10.3181 1.28188 10.0241 1.3556 9.74975 1.55308C9.47551 1.75047 9.31274 2.00543 9.19424 2.25981C9.0878 2.48829 8.55157 4.08872 8.55157 4.08872C8.45627 4.32813 8.28956 4.53218 8.07438 4.67329C7.47727 5.06487 6.94794 4.95035 6.94794 4.95035C6.61796 4.85698 5.06641 4.42064 4.80069 4.3786C4.50518 4.33183 4.18189 4.32586 3.84759 4.46138C3.51342 4.59685 3.28602 4.82595 3.10699 5.06487C3.10699 5.06487 1.76957 7.31456 1.66843 7.54733C1.55583 7.80652 1.47276 8.09914 1.50833 8.4366C1.5439 8.7741 1.68619 9.04311 1.85043 9.2733C1.99791 9.47998 3.45586 11.1019 3.45586 11.1019C3.45586 11.1019 3.71591 11.4151 3.71591 11.9998C3.71591 12.4993 3.45588 12.898 3.45588 12.898C3.24083 13.1363 1.99791 14.5199 1.85044 14.7266C1.68619 14.9568 1.5439 15.2258 1.50833 15.5633C1.47276 15.9008 1.55583 16.1934 1.66844 16.4526L3.10697 18.935C3.28601 19.1739 3.51341 19.4031 3.84761 19.5385C4.18191 19.674 4.50519 19.6681 4.80071 19.6213C5.06643 19.5792 6.94789 19.0495 6.94789 19.0495C7.22563 18.9894 7.65193 19.0495 8.07443 19.3266C8.28957 19.4678 8.55153 19.9112 8.55153 19.9112C8.55153 19.9112 9.0878 21.5117 9.19424 21.7402C9.31274 21.9946 9.47551 22.2495 9.74975 22.4469ZM12.0195 15.5C13.9525 15.5 15.5195 13.933 15.5195 12C15.5195 10.067 13.9525 8.5 12.0195 8.5C10.0865 8.5 8.51953 10.067 8.51953 12C8.51953 13.933 10.0865 15.5 12.0195 15.5Z" fill="currentColor" />
</svg>