<svg xmlns="http://www.w3.org/2000/svg" viewBox="0 0 24 24" width="24" height="24" color="#000000" fill="none">
    <path d="M13.998 21.75C16.253 21.75 18.0331 21.75 19.3515 21.5537C20.6903 21.3543 21.7763 20.9217 22.3759 19.8633L22.4795 19.6641C22.9508 18.6611 22.7579 17.5714 22.2763 16.3945C21.8927 15.4569 21.277 14.3483 20.499 13.0195L19.6689 11.6162L17.7441 8.37109L17.6982 8.29297C16.5955 6.4338 15.7229 4.96328 14.9111 3.96484C14.0828 2.94615 13.1844 2.25 12 2.25C10.8155 2.25004 9.91711 2.94615 9.08883 3.96484C8.47155 4.72408 7.81868 5.7561 7.0566 7.02441L6.25582 8.37109L4.33102 11.6162L4.28317 11.6963C3.13452 13.6328 2.22816 15.1614 1.7236 16.3945C1.21 17.6498 1.02504 18.8058 1.62399 19.8633L1.74215 20.0547C2.36044 20.9749 3.39339 21.3668 4.6484 21.5537C5.96685 21.75 7.74695 21.75 10.0019 21.75L13.998 21.75ZM12 14.5C11.4477 14.4999 11 14.0522 11 13.5V9C11 8.44776 11.4477 8.00007 12 8C12.5522 8 13 8.44771 13 9V13.5C13 14.0523 12.5522 14.5 12 14.5ZM12 18.002C11.4477 18.0019 11 17.5542 11 17.002V16.9922C11 16.4399 11.4477 15.9923 12 15.9922C12.5522 15.9922 13 16.4399 13 16.9922V17.002C13 17.5542 12.5522 18.002 12 18.002Z" fill="currentColor" />
</svg>