<svg xmlns="http://www.w3.org/2000/svg" width="298" height="298" viewBox="0 0 298 298" version="1.1"><path d="M 215.798 1.879 C 200.826 6.803, 182.475 22.085, 163.087 45.774 L 154.944 55.724 143.722 56.268 C 127.099 57.075, 111.230 62.278, 98.261 71.173 L 94.023 74.081 81.761 71.119 C 61.966 66.339, 55.552 65.524, 38 65.564 C 20.291 65.604, 16.629 66.353, 8.770 71.540 C -14.104 86.638, 14.903 128.945, 75.830 169.349 C 83.073 174.153, 88.988 178.627, 88.974 179.292 C 88.959 179.956, 88.172 182.195, 87.224 184.267 L 85.500 188.034 77.046 182.487 C 72.396 179.436, 67.810 176.233, 66.854 175.368 C 65.898 174.503, 64.623 173.959, 64.021 174.160 C 62.537 174.654, 71.720 193.094, 76.776 199.775 L 80.768 205.051 77.937 216.275 C 70.814 244.524, 69.739 269.208, 75.018 283.319 C 77.501 289.954, 83.095 295.410, 89.064 297.017 C 99.314 299.777, 116.596 291.115, 133.865 274.560 C 140.187 268.500, 159 247.682, 159 246.746 C 159 246.571, 154.497 246.477, 148.994 246.537 L 138.988 246.646 129.175 256.626 C 114.336 271.715, 101.628 280.753, 94.504 281.283 C 92.225 281.453, 91.301 280.917, 90.280 278.835 C 87.992 274.172, 86.976 261.748, 88.002 250.981 C 94.581 181.928, 150.262 72.625, 200.923 29.312 C 208.197 23.093, 220.520 16, 224.052 16 C 230.028 16, 231.477 43.213, 226.711 65.972 L 224.099 78.444 227.917 83.472 C 230.017 86.237, 232.522 89.737, 233.483 91.250 C 234.444 92.763, 235.544 94, 235.928 94 C 237.118 94, 242.853 68.148, 244.579 55 C 246.438 40.840, 246.023 25.579, 243.556 17.414 C 239.293 3.301, 228.996 -2.462, 215.798 1.879 M 180.379 65.241 C 177.260 68.787, 169.783 79.129, 170.160 79.375 C 170.347 79.497, 173.875 81.237, 178 83.242 C 192.055 90.073, 203.532 101.457, 210.407 115.386 C 225.070 145.092, 215.891 181.619, 188.738 201.613 L 182.976 205.855 174.371 202.477 C 169.638 200.619, 165.589 198.922, 165.373 198.706 C 165.157 198.490, 168.416 196.616, 172.615 194.540 C 200.033 180.990, 210.799 148.130, 196.907 120.397 C 191.060 108.724, 180.839 99.508, 168.315 94.616 C 162.597 92.382, 162.021 92.324, 160.696 93.850 C 154.251 101.272, 129.765 149.343, 120.636 172.500 C 112.813 192.342, 112.918 191.282, 118.440 194.518 C 124.857 198.278, 151.114 210.282, 165.500 216.032 C 230.537 242.026, 284.209 246.324, 295.788 226.465 C 297.725 223.142, 298.034 221.441, 297.698 215.953 C 297.019 204.880, 289.822 192.329, 275.361 177 C 268.354 169.572, 250.186 153.467, 249.558 154.127 C 249.363 154.332, 248.508 158.207, 247.659 162.737 L 246.115 170.975 257.157 181.737 C 269.354 193.626, 276.071 201.924, 279.631 209.500 C 284.517 219.897, 281.890 222.125, 263.950 222.799 C 250.628 223.299, 236.718 221.481, 219.103 216.939 C 212.835 215.322, 207.493 214, 207.232 214 C 206.971 214, 209.771 210.805, 213.455 206.901 C 228.304 191.160, 236.308 172.662, 237.678 150.924 C 239.661 119.446, 224.601 89.021, 198.187 71.139 C 186.746 63.394, 183.073 62.177, 180.379 65.241 M 129.500 78.893 C 117.338 82.443, 103.090 91.511, 95.725 100.390 C 85.296 112.963, 79.887 127.122, 79.653 142.465 L 79.500 152.500 87.380 157.786 C 91.714 160.694, 95.415 162.919, 95.603 162.730 C 95.792 162.542, 95.426 160.613, 94.790 158.444 C 94.155 156.275, 93.646 150.225, 93.660 145 C 93.688 134.180, 96.409 124.713, 101.991 116.014 C 106.422 109.109, 116.136 100.407, 123.428 96.812 C 128.760 94.182, 130.172 92.844, 134.155 86.642 C 136.677 82.714, 139.051 78.938, 139.430 78.250 C 140.385 76.515, 136.870 76.743, 129.500 78.893 M 23.942 81.879 C 18.886 83.550, 17 85.059, 17 87.434 C 17 90.570, 21.860 99.672, 27.326 106.771 C 31.994 112.833, 50.416 131.024, 55.694 134.782 L 58.823 137.010 59.482 132.755 C 61.630 118.886, 67.165 105.265, 75.492 93.352 C 78.428 89.153, 79.552 86.780, 78.741 86.497 C 78.058 86.259, 73 85.124, 67.500 83.975 C 56.665 81.712, 28.543 80.358, 23.942 81.879 M 106.632 213.486 C 105.184 218.703, 104 223.151, 104 223.369 C 104 224.315, 115.900 229.275, 123.844 231.641 C 130.446 233.606, 135.467 234.326, 145 234.675 C 157.169 235.119, 171.267 233.537, 171.430 231.708 C 171.468 231.272, 166.550 228.901, 160.500 226.440 C 154.450 223.979, 144.325 219.550, 138 216.598 C 131.675 213.647, 123.442 209.978, 119.704 208.446 C 115.967 206.915, 112.678 205.287, 112.395 204.831 C 110.771 202.202, 109.041 204.800, 106.632 213.486" stroke="none" fill="#9999999" fill-rule="evenodd"/><path d="M 185.405 21.250 L 183.500 23.500 185.750 21.595 C 186.988 20.547, 188 19.535, 188 19.345 C 188 18.545, 187.195 19.136, 185.405 21.250 M 245.079 26.583 C 245.127 27.748, 245.364 27.985, 245.683 27.188 C 245.972 26.466, 245.936 25.603, 245.604 25.271 C 245.272 24.939, 245.036 25.529, 245.079 26.583 M 173.405 33.250 L 171.500 35.500 173.750 33.595 C 174.988 32.547, 176 31.535, 176 31.345 C 176 30.545, 175.195 31.136, 173.405 33.250 M 229.158 46 C 229.158 47.375, 229.385 47.938, 229.662 47.250 C 229.940 46.563, 229.940 45.438, 229.662 44.750 C 229.385 44.063, 229.158 44.625, 229.158 46 M 181.872 47.750 C 180.629 49.336, 180.664 49.371, 182.250 48.128 C 183.916 46.821, 184.445 46, 183.622 46 C 183.415 46, 182.627 46.788, 181.872 47.750 M 245.158 49 C 245.158 50.375, 245.385 50.938, 245.662 50.250 C 245.940 49.563, 245.940 48.438, 245.662 47.750 C 245.385 47.063, 245.158 47.625, 245.158 49 M 50.813 65.683 C 51.534 65.972, 52.397 65.936, 52.729 65.604 C 53.061 65.272, 52.471 65.036, 51.417 65.079 C 50.252 65.127, 50.015 65.364, 50.813 65.683 M 135.813 77.683 C 136.534 77.972, 137.397 77.936, 137.729 77.604 C 138.061 77.272, 137.471 77.036, 136.417 77.079 C 135.252 77.127, 135.015 77.364, 135.813 77.683 M 26.813 81.683 C 27.534 81.972, 28.397 81.936, 28.729 81.604 C 29.061 81.272, 28.471 81.036, 27.417 81.079 C 26.252 81.127, 26.015 81.364, 26.813 81.683 M 77 86.393 C 77 86.609, 77.698 87.054, 78.552 87.382 C 79.442 87.723, 79.843 87.555, 79.493 86.989 C 78.906 86.038, 77 85.583, 77 86.393 M 98.924 96.750 L 96.500 99.500 99.250 97.076 C 101.820 94.810, 102.459 94, 101.674 94 C 101.495 94, 100.258 95.237, 98.924 96.750 M 108.405 107.250 L 106.500 109.500 108.750 107.595 C 109.987 106.547, 111 105.535, 111 105.345 C 111 104.545, 110.195 105.136, 108.405 107.250 M 35 138.378 C 35 138.585, 35.788 139.373, 36.750 140.128 C 38.336 141.371, 38.371 141.336, 37.128 139.750 C 35.821 138.084, 35 137.555, 35 138.378 M 79.079 139.583 C 79.127 140.748, 79.364 140.985, 79.683 140.188 C 79.972 139.466, 79.936 138.603, 79.604 138.271 C 79.272 137.939, 79.036 138.529, 79.079 139.583 M 203.272 145 C 203.272 147.475, 203.467 148.488, 203.706 147.250 C 203.944 146.012, 203.944 143.988, 203.706 142.750 C 203.467 141.512, 203.272 142.525, 203.272 145 M 217.252 145.500 C 217.263 147.700, 217.468 148.482, 217.707 147.238 C 217.946 145.994, 217.937 144.194, 217.687 143.238 C 217.437 142.282, 217.241 143.300, 217.252 145.500 M 237.079 156.583 C 237.127 157.748, 237.364 157.985, 237.683 157.188 C 237.972 156.466, 237.936 155.603, 237.604 155.271 C 237.272 154.939, 237.036 155.529, 237.079 156.583 M 248 173.378 C 248 173.585, 248.787 174.373, 249.750 175.128 C 251.336 176.371, 251.371 176.336, 250.128 174.750 C 248.821 173.084, 248 172.555, 248 173.378 M 212.924 207.750 L 210.500 210.500 213.250 208.076 C 215.820 205.810, 216.459 205, 215.674 205 C 215.495 205, 214.258 206.238, 212.924 207.750 M 248.813 222.683 C 249.534 222.972, 250.397 222.936, 250.729 222.604 C 251.061 222.272, 250.471 222.036, 249.417 222.079 C 248.252 222.127, 248.015 222.364, 248.813 222.683 M 171.333 231.456 C 171.333 232.257, 171.716 232.676, 172.183 232.387 C 172.650 232.098, 172.774 231.443, 172.457 230.931 C 171.649 229.623, 171.333 229.770, 171.333 231.456 M 146.762 235.707 C 148.006 235.946, 149.806 235.937, 150.762 235.687 C 151.718 235.437, 150.700 235.241, 148.500 235.252 C 146.300 235.263, 145.518 235.468, 146.762 235.707 M 238.813 237.683 C 239.534 237.972, 240.397 237.936, 240.729 237.604 C 241.061 237.272, 240.471 237.036, 239.417 237.079 C 238.252 237.127, 238.015 237.364, 238.813 237.683 M 246.813 238.683 C 247.534 238.972, 248.397 238.936, 248.729 238.604 C 249.061 238.272, 248.471 238.036, 247.417 238.079 C 246.252 238.127, 246.015 238.364, 246.813 238.683 M 272.813 238.683 C 273.534 238.972, 274.397 238.936, 274.729 238.604 C 275.061 238.272, 274.471 238.036, 273.417 238.079 C 272.252 238.127, 272.015 238.364, 272.813 238.683 M 259.264 239.718 C 260.784 239.947, 263.034 239.941, 264.264 239.704 C 265.494 239.467, 264.250 239.279, 261.500 239.286 C 258.750 239.294, 257.744 239.488, 259.264 239.718 M 72.079 243.583 C 72.127 244.748, 72.364 244.985, 72.683 244.188 C 72.972 243.466, 72.936 242.603, 72.604 242.271 C 72.272 241.939, 72.036 242.529, 72.079 243.583 M 88.079 246.583 C 88.127 247.748, 88.364 247.985, 88.683 247.188 C 88.972 246.466, 88.936 245.603, 88.604 245.271 C 88.272 244.939, 88.036 245.529, 88.079 246.583 M 136.872 247.750 C 135.629 249.336, 135.664 249.371, 137.250 248.128 C 138.916 246.821, 139.445 246, 138.622 246 C 138.415 246, 137.627 246.787, 136.872 247.750 M 145.768 246.725 C 147.565 246.947, 150.265 246.943, 151.768 246.715 C 153.271 246.486, 151.800 246.304, 148.500 246.310 C 145.200 246.315, 143.971 246.502, 145.768 246.725 M 71.232 255 C 71.232 256.925, 71.438 257.712, 71.689 256.750 C 71.941 255.787, 71.941 254.213, 71.689 253.250 C 71.438 252.287, 71.232 253.075, 71.232 255 M 152.872 253.750 C 151.629 255.336, 151.664 255.371, 153.250 254.128 C 154.213 253.373, 155 252.585, 155 252.378 C 155 251.555, 154.179 252.084, 152.872 253.750 M 126.437 259.250 L 123.500 262.500 126.750 259.563 C 129.779 256.825, 130.460 256, 129.687 256 C 129.515 256, 128.052 257.462, 126.437 259.250 M 87.252 260.500 C 87.263 262.700, 87.468 263.482, 87.707 262.238 C 87.946 260.994, 87.937 259.194, 87.687 258.238 C 87.437 257.282, 87.241 258.300, 87.252 260.500 M 71.195 265.500 C 71.215 267.150, 71.439 267.704, 71.693 266.731 C 71.947 265.758, 71.930 264.408, 71.656 263.731 C 71.382 263.054, 71.175 263.850, 71.195 265.500 M 91.174 280.603 C 92.070 281.499, 93.283 282.067, 93.869 281.866 C 94.455 281.665, 93.722 280.931, 92.240 280.237 C 89.749 279.069, 89.668 279.097, 91.174 280.603 M 79.500 292 C 80.495 293.100, 81.535 294, 81.810 294 C 82.085 294, 81.495 293.100, 80.500 292 C 79.505 290.900, 78.465 290, 78.190 290 C 77.915 290, 78.505 290.900, 79.500 292" stroke="none" fill="#000000" fill-rule="evenodd"/></svg>