<svg xmlns="http://www.w3.org/2000/svg" width="24" height="24" viewBox="0 0 24 24"><g fill="none" stroke="currentColor" stroke-linecap="round" stroke-width="1.5"><path stroke-linejoin="round" d="M20.935 11.009V8.793a2.98 2.98 0 0 0-1.529-2.61l-5.957-3.307a2.98 2.98 0 0 0-2.898 0L4.594 6.182a2.98 2.98 0 0 0-1.529 2.611v6.414a2.98 2.98 0 0 0 1.529 2.61l5.957 3.307a2.98 2.98 0 0 0 2.898 0l2.522-1.4"/><path stroke-linejoin="round" d="M20.33 6.996L12 12L3.67 6.996M12 21.49V12"/><path stroke-miterlimit="10" d="M19.97 19.245v-5"/><path stroke-linejoin="round" d="m17.676 17.14l1.968 1.968a.46.46 0 0 0 .65 0l1.968-1.968"/></g></svg>