<svg xmlns="http://www.w3.org/2000/svg" width="24" height="24" viewBox="0 0 24 24"><path fill="currentColor" d="M12.077 19q-2.931 0-4.966-2.033q-2.034-2.034-2.034-4.964t2.034-4.966T12.077 5q1.783 0 3.339.847q1.555.847 2.507 2.365V5.5q0-.213.144-.356T18.424 5t.356.144t.143.356v3.923q0 .343-.232.576t-.576.232h-3.923q-.212 0-.356-.144t-.144-.357t.144-.356t.356-.143h3.2q-.78-1.496-2.197-2.364Q13.78 6 12.077 6q-2.5 0-4.25 1.75T6.077 12t1.75 4.25t4.25 1.75q1.787 0 3.271-.968q1.485-.969 2.202-2.573q.085-.196.274-.275q.19-.08.388-.013q.211.067.28.275t-.015.404q-.833 1.885-2.56 3.017T12.077 19"/></svg>