<svg xmlns="http://www.w3.org/2000/svg" viewBox="0 0 24 24" width="24" height="24" color="#000000" fill="none" stroke="currentColor" stroke-width="1.5" stroke-linecap="round" stroke-linejoin="round">
    <path d="M14 21.5H10C6.71252 21.5 5.06878 21.5 3.96243 20.592C3.75989 20.4258 3.57418 20.2401 3.40796 20.0376C2.5 18.9312 2.5 17.2875 2.5 14C2.5 10.7125 2.5 9.06878 3.40796 7.96243C3.57418 7.75989 3.75989 7.57418 3.96243 7.40796C5.06878 6.5 6.71252 6.5 10 6.5H14C17.2875 6.5 18.9312 6.5 20.0376 7.40796C20.2401 7.57418 20.4258 7.75989 20.592 7.96243C21.5 9.06878 21.5 10.7125 21.5 14C21.5 17.2875 21.5 18.9312 20.592 20.0376C20.4258 20.2401 20.2401 20.4258 20.0376 20.592C18.9312 21.5 17.2875 21.5 14 21.5Z" />
    <path d="M2.5 14.5V10.5C2.5 6.72876 2.5 4.84315 3.67157 3.67157C4.84315 2.5 6.72876 2.5 10.5 2.5H13.5C17.2712 2.5 19.1569 2.5 20.3284 3.67157C21.5 4.84315 21.5 6.72876 21.5 10.5V14.5" />
    <path d="M15 14.5C15 14.5 12.7905 17.4999 12 17.4999C11.2094 17.5 9 14.4999 9 14.4999M12 17L12 10.5" />
</svg>